<?xml version="1.0" encoding="UTF-8" standalone="no"?>
<svg
   xmlns:dc="http://purl.org/dc/elements/1.1/"
   xmlns:cc="http://creativecommons.org/ns#"
   xmlns:rdf="http://www.w3.org/1999/02/22-rdf-syntax-ns#"
   xmlns:svg="http://www.w3.org/2000/svg"
   xmlns="http://www.w3.org/2000/svg"
   xmlns:sodipodi="http://sodipodi.sourceforge.net/DTD/sodipodi-0.dtd"
   xmlns:inkscape="http://www.inkscape.org/namespaces/inkscape"
   width="16"
   height="16"
   viewBox="0 0 16 16"
   version="1.1"
   id="svg4"
   sodipodi:docname="clock_white.svg"
   inkscape:version="1.0.2 (e86c870879, 2021-01-15, custom)"
   inkscape:export-filename="D:\home\luryus\Code\Dotnet\kyyla\Kyyla\Icons\clock_white_128.png"
   inkscape:export-xdpi="768"
   inkscape:export-ydpi="768">
  <metadata
     id="metadata10">
    <rdf:RDF>
      <cc:Work
         rdf:about="">
        <dc:format>image/svg+xml</dc:format>
        <dc:type
           rdf:resource="http://purl.org/dc/dcmitype/StillImage" />
      </cc:Work>
    </rdf:RDF>
  </metadata>
  <defs
     id="defs8" />
  <sodipodi:namedview
     pagecolor="#ffffff"
     bordercolor="#666666"
     borderopacity="1"
     objecttolerance="10"
     gridtolerance="10"
     guidetolerance="10"
     inkscape:pageopacity="0"
     inkscape:pageshadow="2"
     inkscape:window-width="1371"
     inkscape:window-height="1016"
     id="namedview6"
     showgrid="false"
     inkscape:zoom="7.875"
     inkscape:cx="-26.713214"
     inkscape:cy="20.301464"
     inkscape:window-x="789"
     inkscape:window-y="305"
     inkscape:window-maximized="0"
     inkscape:current-layer="svg4" />
  <path
     fill="#212121"
     fill-rule="nonzero"
     d="M8,2 C11.3137085,2 14,4.6862915 14,8 C14,11.3137085 11.3137085,14 8,14 C4.6862915,14 2,11.3137085 2,8 C2,4.6862915 4.6862915,2 8,2 Z M8,3 C5.23857625,3 3,5.23857625 3,8 C3,10.7614237 5.23857625,13 8,13 C10.7614237,13 13,10.7614237 13,8 C13,5.23857625 10.7614237,3 8,3 Z M7.5015268,5 C7.74698668,5 7.95113517,5.17687516 7.99347113,5.41012437 L8.0015268,5.5 L8.0015268,8 L9.5,8 C9.77614237,8 10,8.22385763 10,8.5 C10,8.74545989 9.82312484,8.94960837 9.58987563,8.99194433 L9.5,9 L7.5015268,9 C7.25606691,9 7.05191843,8.82312484 7.00958247,8.58987563 L7.0015268,8.5 L7.0015268,5.5 C7.0015268,5.22385763 7.22538442,5 7.5015268,5 Z"
     id="path2"
     style="fill:#ffffff" />
</svg>
